<?xml version="1.0" standalone="no"?>
<!DOCTYPE svg PUBLIC "-//W3C//DTD SVG 20010904//EN"
 "http://www.w3.org/TR/2001/REC-SVG-20010904/DTD/svg10.dtd">
<svg version="1.0" xmlns="http://www.w3.org/2000/svg"
 width="626.000000pt" height="626.000000pt" viewBox="0 0 626.000000 626.000000"
 preserveAspectRatio="xMidYMid meet">

<g transform="translate(-120.000000,766.000000) scale(0.15000,-0.15000)"
fill="#000000" stroke="none">
<path d="M1396 4908 c7 -12 657 -957 1166 -1697 162 -235 187 -276 176 -290
-32 -40 -1295 -1510 -1326 -1543 l-36 -38 150 0 150 0 499 582 c275 320 545
634 600 699 55 65 103 117 107 116 5 -1 223 -315 486 -697 l478 -695 517 -3
517 -2 -34 47 c-18 27 -338 491 -711 1033 -597 867 -676 986 -665 1003 9 16
1192 1395 1263 1475 l20 22 -149 -1 -149 0 -545 -635 c-300 -349 -554 -645
-566 -659 l-20 -26 -384 558 c-211 307 -416 604 -454 660 l-71 103 -513 0
c-408 0 -512 -3 -506 -12z m1206 -666 c169 -246 499 -726 734 -1067 235 -341
575 -836 757 -1100 181 -264 334 -486 340 -493 7 -9 -39 -12 -226 -12 l-236 0
-187 272 c-103 150 -425 617 -714 1038 -290 421 -687 998 -883 1283 -196 285
-357 520 -357 523 0 2 105 4 233 4 l232 -1 307 -447z"/>
</g>
</svg>
